<?xml version="1.0" standalone="no"?>
<!DOCTYPE svg PUBLIC "-//W3C//DTD SVG 20010904//EN"
 "http://www.w3.org/TR/2001/REC-SVG-20010904/DTD/svg10.dtd">
<svg version="1.0" xmlns="http://www.w3.org/2000/svg"
 width="192.000000pt" height="192.000000pt" viewBox="0 0 192.000000 192.000000"
 preserveAspectRatio="xMidYMid meet">
<metadata>
Created by potrace 1.14, written by Peter Selinger 2001-2017
</metadata>
<g transform="translate(0.000000,192.000000) scale(0.100000,-0.100000)"
fill="#000000" stroke="none">
<path d="M784 1740 c-246 -55 -467 -239 -558 -464 -42 -104 -40 -99 -49 -151
-19 -115 -25 -224 -14 -255 3 -8 8 -31 11 -50 7 -49 16 -92 26 -115 4 -11 13
-33 19 -48 6 -16 8 -34 5 -40 -4 -7 -3 -9 1 -4 5 4 20 -14 35 -40 47 -85 55
-97 78 -116 13 -11 21 -26 18 -34 -3 -8 -1 -11 4 -8 6 3 13 -1 16 -9 3 -9 12
-16 20 -16 13 0 19 -13 15 -33 -1 -5 3 -6 8 -3 12 8 63 -33 56 -45 -4 -5 0 -6
7 -4 8 3 23 -4 35 -15 12 -11 27 -20 33 -20 6 0 8 -4 5 -10 -3 -5 0 -7 8 -4 8
3 22 -2 31 -11 9 -9 16 -14 16 -11 0 3 21 -5 48 -16 50 -22 94 -35 152 -45 19
-3 37 -9 38 -14 2 -6 9 -5 17 1 9 7 15 8 19 1 4 -6 14 -7 23 -4 12 5 14 3 8
-8 -7 -11 -6 -12 6 -3 21 16 82 18 73 2 -5 -9 -3 -9 9 1 10 8 20 11 24 8 3 -4
14 -2 24 4 14 7 19 6 19 -3 0 -9 2 -10 8 -2 4 7 24 15 45 18 21 3 48 11 59 17
11 6 26 8 34 5 8 -3 14 -2 14 2 0 5 16 14 35 21 30 10 39 10 53 -1 15 -11 16
-11 4 3 -10 14 -10 18 5 23 10 4 19 7 21 6 1 0 11 8 22 18 11 10 33 25 48 33
15 8 31 20 35 26 4 7 15 13 24 13 9 0 14 2 11 5 -3 3 21 32 53 65 33 32 59 63
59 69 0 6 4 11 8 11 4 0 21 25 37 55 17 30 33 55 37 55 5 0 7 3 6 8 -3 16 15
61 27 65 8 4 11 16 7 33 -3 18 -1 25 6 20 8 -4 10 -2 6 8 -3 8 -2 21 2 28 8
13 16 61 18 111 0 15 3 27 6 27 5 0 3 89 -3 140 -40 334 -260 595 -582 691
-98 29 -281 33 -391 9z"/>
</g>
</svg>
